<?xml version="1.0" encoding="UTF-8"?>
<svg xmlns="http://www.w3.org/2000/svg" viewBox="-120 -60 693.15 668.7">
  <defs>
    <linearGradient id="bodyGradient" x1="0" y1="0" x2="0.82" y2="1">
      <stop offset="0" stop-color="#9a82ff"/>
      <stop offset="0.42" stop-color="#7655ff"/>
      <stop offset="1" stop-color="#5932ec"/>
    </linearGradient>
    <linearGradient id="lightGradient" x1="0.08" y1="0.03" x2="0.75" y2="0.88">
      <stop offset="0" stop-color="#ffffff" stop-opacity="0.5"/>
      <stop offset="0.38" stop-color="#ffffff" stop-opacity="0.12"/>
      <stop offset="0.72" stop-color="#ffffff" stop-opacity="0"/>
    </linearGradient>
    <linearGradient id="shadeGradient" x1="0.35" y1="0.08" x2="0.62" y2="1">
      <stop offset="0.48" stop-color="#351586" stop-opacity="0"/>
      <stop offset="1" stop-color="#351586" stop-opacity="0.28"/>
    </linearGradient>
    <linearGradient id="rimGradient" x1="0.15" y1="0.08" x2="0.9" y2="0.94">
      <stop offset="0" stop-color="#ffffff" stop-opacity="0.38"/>
      <stop offset="0.42" stop-color="#ffffff" stop-opacity="0.1"/>
      <stop offset="1" stop-color="#321078" stop-opacity="0.24"/>
    </linearGradient>
    <linearGradient id="offsetHighlight" x1="0" y1="0" x2="0.9" y2="1">
      <stop offset="0" stop-color="#ffffff" stop-opacity="0.76"/>
      <stop offset="0.42" stop-color="#ffffff" stop-opacity="0.34"/>
      <stop offset="0.72" stop-color="#ffffff" stop-opacity="0"/>
    </linearGradient>
    <filter id="groundingShadow" x="-25%" y="-20%" width="150%" height="160%"
            color-interpolation-filters="sRGB">
      <feDropShadow dx="0" dy="5" stdDeviation="6"
                    flood-color="#321078" flood-opacity="0.14"/>
    </filter>
    <path id="toteShape" fill-rule="evenodd" d="M239.48,548.07c-73.8-.13-161.66.19-234.27.55-11.81,2.23.16-48.53.26-56.4,3.38-21.52,8.05-48.66,12.16-70.23,20.09-111.36,52.81-223.39,111.7-320.77,20.66-29.89,38.33-63.04,69.86-82.5,6.73-7.14,14.4-12.74,23.41-16.46,2.85-3.85,14.23-1.64,19.13-1.5,82.64,63.32,122.53,168.81,155.42,264.73,28.44,89.47,58.8,184.88,55.79,279.32-68.88,6.82-144.06,2.43-213.46,3.27ZM279.54,302.14c47.5-67.66,17.72-158.09-8.54-228.75-6.07-16.11-13.04-37.3-29.29-45.92-.84,3.01-10.9.72-14.35.48-7.53-.54-4.04-5.85-8.94-4.11-27.42,4.96-59.27,126.62-65.04,155.11.42-2.26-1.87,8.69-1.5,5.96-6.84,36.12-1.59,75.64,17.26,107.58,31.72,40.59,74.39,53.64,110.41,9.66Z"/>
    <clipPath id="shapeClip">
      <use href="#toteShape"/>
    </clipPath>
  </defs>

  <g id="shadow">
    <use href="#toteShape" fill="#6c47ff" filter="url(#groundingShadow)"/>
  </g>

  <g id="base">
    <use href="#toteShape" fill="url(#bodyGradient)"
         stroke="url(#bodyGradient)" stroke-width="9"
         stroke-linejoin="round" stroke-linecap="round"/>
  </g>

  <g id="surface-lighting" clip-path="url(#shapeClip)">
    <rect x="-10" y="-10" width="470" height="570" fill="url(#lightGradient)"/>
    <rect x="-10" y="-10" width="470" height="570" fill="url(#shadeGradient)"/>
    <path d="M42 470C101 493 321 493 414 465L428 548H21Z"
          fill="#321078" opacity="0.04"/>
  </g>

  <g id="edge-definition">
    <use href="#toteShape" transform="translate(-3 -4)"
         fill="none" stroke="url(#offsetHighlight)"
         stroke-width="5.5" stroke-linejoin="round" stroke-linecap="round"/>
    <use href="#toteShape" fill="none" stroke="url(#rimGradient)"
         stroke-width="3.5" stroke-linejoin="round" stroke-linecap="round"/>
    <path d="M218.5 24.5C190 55 161 151 153.5 184.8c-6.8 36.1-1.6 75.6 17.3 107.6 31.7 40.6 74.4 53.6 109.4 9.7"
          fill="none" stroke="#ffffff" stroke-opacity="0.22"
          stroke-width="3.5" stroke-linecap="round"/>
  </g>
</svg>
