<?xml version="1.0" encoding="UTF-8"?>
<svg xmlns="http://www.w3.org/2000/svg" viewBox="-120 -60 693.15 668.7">
  <path fill="#6c47ff" d="M239.48,548.07c-73.8-.13-161.66.19-234.27.55-11.81,2.23.16-48.53.26-56.4,3.38-21.52,8.05-48.66,12.16-70.23,20.09-111.36,52.81-223.39,111.7-320.77,20.66-29.89,38.33-63.04,69.86-82.5,6.73-7.14,14.4-12.74,23.41-16.46,2.85-3.85,14.23-1.64,19.13-1.5,82.64,63.32,122.53,168.81,155.42,264.73,28.44,89.47,58.8,184.88,55.79,279.32-68.88,6.82-144.06,2.43-213.46,3.27ZM279.54,302.14c47.5-67.66,17.72-158.09-8.54-228.75-6.07-16.11-13.04-37.3-29.29-45.92-.84,3.01-10.9.72-14.35.48-7.53-.54-4.04-5.85-8.94-4.11-27.42,4.96-59.27,126.62-65.04,155.11.42-2.26-1.87,8.69-1.5,5.96-6.84,36.12-1.59,75.64,17.26,107.58,31.72,40.59,74.39,53.64,110.41,9.66Z"/>
</svg>
